<?xml version="1.0" encoding="utf-8"?>
<!-- Generator: Adobe Illustrator 28.1.0, SVG Export Plug-In . SVG Version: 6.00 Build 0)  -->
<svg version="1.1" id="Layer_1" xmlns="http://www.w3.org/2000/svg" xmlns:xlink="http://www.w3.org/1999/xlink" x="0px" y="0px"
	 viewBox="0 0 25.899 27.712" style="enable-background:new 0 0 25.899 27.712;" xml:space="preserve">
<style type="text/css">
	.st0{fill:#FFFFFF;}
</style>
<g>
	<g>
		<path class="st0" d="M5.839,13.763l0.063-0.366c-0.132-0.061-0.276-0.092-0.422-0.091c-0.139-0.003-0.275,0.033-0.394,0.105
			l0.113,0.324C5.354,13.7,5.726,13.687,5.839,13.763z"/>
		<path class="st0" d="M5.093,14.559v0.121c0.08,0.036,0.148,0.093,0.196,0.166L5.4,14.818l-0.047-0.076
			c0.049-0.021,0.101-0.033,0.154-0.037c0.082-0.009,0.164,0.011,0.233,0.056l0.241-0.056l0.033-0.052
			c-0.169-0.154-0.394-0.231-0.621-0.214C5.288,14.465,5.187,14.505,5.093,14.559z"/>
		<path class="st0" d="M9.183,12.934c-0.03-0.038-0.101,0-0.101,0l-1.15,0.427c-0.087-0.212-0.19-0.417-0.309-0.613l0.372-1.015
			c0,0,0.047-0.101,0-0.126c-0.047-0.025-0.113,0.042-0.113,0.042l-0.673,0.55c-0.263-0.281-0.578-0.507-0.929-0.665
			c-0.135-0.06-0.274-0.11-0.415-0.15L5.656,10.58c0,0-0.018-0.08-0.073-0.08s-0.068,0.075-0.068,0.075L5.38,11.286
			c-0.151-0.019-0.303-0.029-0.455-0.03c-0.463-0.006-0.922,0.087-1.346,0.272c-0.166,0.075-0.325,0.165-0.473,0.269
			c-0.025,0.017-0.048,0.037-0.071,0.055c-0.14-0.361-0.249-0.653-0.271-0.741c0.129-0.144,0.224-0.314,0.281-0.498
			c0.051-0.177,0.044-0.367-0.02-0.54C2.983,9.939,2.896,9.814,2.903,9.729c0.005-0.052,0.029-0.101,0.066-0.138
			C2.961,9.517,2.901,9.46,2.827,9.455C2.771,9.454,2.715,9.458,2.66,9.468C2.645,9.442,2.617,9.447,2.639,9.355
			c0.032-0.14,0.299-0.204,0.517-0.289C3.425,8.98,3.604,8.725,3.594,8.442C3.611,8.235,3.499,8.039,3.312,7.95
			c-0.059,0.114-0.15,0.208-0.261,0.271C2.955,8.271,2.845,8.288,2.739,8.269c0.027-0.151-0.047-0.302-0.183-0.374
			C2.454,8.016,2.299,8.079,2.142,8.061c-0.184-0.03-0.37-0.05-0.557-0.06c-0.452,0-0.831,0.272-0.871,0.665
			c-0.021,0.208,0.03,0.416,0.146,0.59C0.785,9.32,0.715,9.391,0.653,9.468C0.594,9.402,0.493,9.394,0.424,9.45
			c0.024,0.061,0.028,0.128,0.01,0.191c-0.095,0.205-0.163,0.421-0.203,0.643C0.189,10.62,0.362,10.946,0.663,11.1
			c-0.046,0.059-0.055,0.14-0.023,0.208c0.032,0.054,0.092,0.084,0.155,0.08c-0.055,0.061-0.069,0.149-0.037,0.224
			c0.037,0.093,0.145,0.229,0.239,0.229c0.005,0.116,0.023,0.23,0.052,0.342c-0.045,0.065-0.066,0.142-0.061,0.221
			c-0.002,0.105,0.066,0.198,0.166,0.229c0.018,0.055,0.043,0.108,0.075,0.156c0.037,0.05,0.082,0.094,0.133,0.13
			c0.071,0.053,0.156,0.083,0.244,0.085c0.072,0.008,0.145,0.008,0.218,0c0,0.027,0.012,0.274,0.022,0.55
			c-0.246,0.716-0.368,1.469-0.361,2.226c0,1.464,0.419,2.768,1.214,3.609c0.049,0.054,0.105,0.1,0.166,0.14
			c0.191-0.316,0.4-0.621,0.628-0.912c0.103-0.126,0.214-0.245,0.332-0.356c0.188-0.166,0.369-0.307,0.545-0.435
			c0.478-0.331,1.015-0.567,1.582-0.696c-0.545,0.249-1.052,0.572-1.509,0.96c-0.53,0.443-0.974,0.98-1.309,1.585
			c0.091,0.077,0.201,0.126,0.319,0.143c0.083-0.096,0.507-0.874,1.163-1.495c0.996-0.942,2.309-1.476,3.68-1.495
			c0.046-0.346,0.069-0.694,0.068-1.043c0.004-0.559-0.058-1.117-0.184-1.661l0.97-1.08C9.15,13.042,9.211,12.972,9.183,12.934z
			 M7.764,11.934l-0.744,1.59c-0.153-0.135-0.32-0.254-0.498-0.352L7.764,11.934z M5.606,10.909l0.356,2.015
			c-0.199-0.065-0.41-0.085-0.618-0.061L5.606,10.909z M4.807,13.064c-0.153,0.093-0.274,0.23-0.347,0.394l-0.889-1.515
			L4.807,13.064z M4.294,14.162c-0.037,0.055-0.062,0.118-0.071,0.184c-0.012,0.063-0.012,0.128,0,0.191l-0.379-0.263
			c-0.002-0.103-0.01-0.207-0.025-0.309c0.001-0.011,0.001-0.022,0-0.033L4.294,14.162z M1.567,8.314
			c0.156-0.01,0.357,0.033,0.46,0.033c0.146,0.002,0.291-0.023,0.429-0.073c0.03,0.072,0.023,0.155-0.02,0.221
			c0.127,0.051,0.262,0.078,0.399,0.08c0.171-0.008,0.332-0.084,0.449-0.209C3.316,8.483,3.285,8.609,3.2,8.698
			C3.018,8.862,2.586,8.952,2.459,9.045C2.388,9.091,2.33,9.156,2.293,9.232c-0.042-0.042-0.055-0.078-0.135-0.07
			c-0.08,0.008-0.1,0.088-0.203,0.083C1.853,9.241,1.773,9.063,1.652,9.063C1.464,9.056,1.368,9.211,1.31,9.214
			c-0.058,0.003-0.135-0.08-0.166-0.123C1.08,8.993,1.051,8.876,1.062,8.759C1.09,8.502,1.309,8.309,1.567,8.314z M0.577,10.479
			c-0.039-0.073-0.059-0.155-0.056-0.238c0.025-0.117,0.068-0.229,0.128-0.332c0.027-0.081,0.02-0.169-0.02-0.244
			c0.043-0.008,0.128,0.043,0.188,0.028c0.059-0.008,0.108-0.048,0.126-0.105c0.028-0.061,0.071-0.11,0.13-0.115
			C1.13,9.468,1.248,9.528,1.346,9.505C1.473,9.477,1.526,9.35,1.629,9.35s0.188,0.138,0.286,0.151
			c0.098,0.013,0.251-0.105,0.351-0.066c0.1,0.038,0.053,0.193,0.123,0.249c0.07,0.056,0.234-0.01,0.281-0.02
			C2.65,9.724,2.641,9.785,2.64,9.847c0.005,0.071,0.123,0.282,0.123,0.357c0.011,0.087,0.001,0.175-0.028,0.258
			C2.725,10.181,2.39,9.839,1.65,9.824C1.006,9.812,0.562,10.073,0.577,10.479z M2.179,10.636c-0.146-0.14-0.343-0.214-0.545-0.203
			c-0.262-0.002-0.467,0.103-0.495,0.193c-0.03-0.1,0.002-0.209,0.081-0.277c0.114-0.084,0.254-0.128,0.395-0.123
			c0.162-0.01,0.322,0.035,0.455,0.126C2.156,10.42,2.197,10.529,2.179,10.636z M1.223,11.467c-0.053,0.051-0.092,0.115-0.113,0.186
			c-0.065-0.061-0.113-0.14-0.136-0.226c0.048-0.082,0.123-0.146,0.211-0.181c-0.079-0.001-0.158,0.005-0.236,0.02
			c-0.028-0.07-0.036-0.145-0.023-0.219h0.095L0.969,10.92c0.135-0.097,0.291-0.162,0.455-0.188c0.007,0.047,0.007,0.094,0,0.141
			c-0.002,0.027-0.018,0.052-0.042,0.065L1.26,11.002c0.075-0.005,0.151-0.005,0.226,0c0.042,0.005,0.061,0.013,0.061,0.056
			c0.001,0.041-0.011,0.082-0.035,0.116c-0.023,0.033-0.093,0.033-0.131,0.033c0.017,0.032,0.025,0.067,0.025,0.103
			c0.003,0.036-0.018,0.069-0.052,0.081C1.308,11.413,1.264,11.438,1.223,11.467z M1.983,12.447
			c-0.101-0.061-0.215-0.097-0.332-0.105c-0.117,0.001-0.232,0.033-0.332,0.095c-0.047-0.035-0.059-0.1-0.028-0.15
			c0.027-0.066,0.065-0.076,0.065-0.076L1.32,11.597c0.069-0.051,0.143-0.097,0.219-0.136c0.043-0.012,0.072-0.053,0.068-0.098
			c0.095,0.072,0.179,0.158,0.249,0.254c0.057,0.078,0.09,0.171,0.095,0.268c0.006,0.111,0.001,0.222-0.015,0.332
			c0.038,0.033,0.075,0.061,0.08,0.113C2.018,12.371,2.006,12.413,1.983,12.447z M2.209,14.271
			c-0.023-0.043-0.131-2.326-0.136-2.402l0.121-0.088v-0.023c-0.084,0.001-0.165-0.031-0.224-0.09l-0.033-0.699
			c-0.103-0.005-0.202-0.04-0.286-0.1C1.571,10.81,1.551,10.7,1.604,10.616c0.002,0.001,0.005,0.001,0.007,0.002
			c0.001-0.002,0-0.005,0.002-0.007c0.122,0.063,0.257,0.096,0.394,0.095c0.032,0,0.101,0.073,0.141,0.09
			c0.04,0.017,0.12,0.058,0.155,0.075c0.035,0.017,0.051,0.088,0.061,0.116c0.01,0.028,1.138,2.961,1.163,2.991
			c0.025,0.03,0.083,0.523,0.088,0.562c0.054,0.166,0.119,0.327,0.196,0.483c-0.226,0.015-0.439,0.114-0.596,0.277
			c-0.199,0.234-0.34,0.512-0.412,0.811C2.785,16.003,2.232,14.313,2.209,14.271z M3.312,18.196
			c-0.106,0.181-0.404,0.545-0.508,0.683c0.142-0.383,0.21-0.789,0.201-1.198c0-0.274-0.088-0.879-0.015-1.279
			c0.042-0.36,0.216-0.692,0.488-0.932c0.238-0.213,0.571-0.285,0.876-0.189l0.347,0.653c-0.207-0.04-0.421,0.003-0.595,0.121
			c-0.307,0.238-0.412,0.555-0.462,1.022C3.611,17.468,3.498,17.849,3.312,18.196z M3.677,17.963c0.1-0.297,0.176-0.602,0.226-0.912
			c0.04-0.233,0.078-0.573,0.356-0.801c0.129-0.095,0.291-0.131,0.449-0.101l0.392,0.801c0.049,0.077,0.137,0.12,0.228,0.11
			C4.96,17.182,4.031,17.619,3.677,17.963z M5.573,16.989l-0.141-0.482l0.322-0.452c-0.143,0.054-0.289,0.097-0.439,0.13
			c-0.02,0.002-0.183,0.033-0.218-0.125c-0.013-0.049-0.022-0.098-0.027-0.148c0-0.04,0.035-0.083,0.07-0.083
			c0.034,0.009,0.07,0.005,0.1-0.013l0.066-0.091c-0.055-0.007-0.121-0.023-0.15-0.023c-0.043,0.01-0.086,0.024-0.128,0.04
			c-0.028-0.022-0.071-0.058-0.056-0.108h0.372v-0.043c-0.085-0.039-0.174-0.069-0.266-0.088c-0.04-0.005-0.08,0.01-0.106,0.04
			v-0.071l0.198-0.178l-0.218-0.091l-0.12,0.022l0.076-0.498L4.87,14.64l-0.213,0.126v-0.279c0.007-0.052,0.105-0.15,0.184-0.196
			l-0.013-0.166c-0.089,0.039-0.168,0.095-0.234,0.166c-0.063,0.075-0.101,0.169-0.106,0.267c-0.056-0.063-0.08-0.148-0.063-0.231
			c0.019-0.099,0.074-0.187,0.155-0.248c-0.029-0.118-0.029-0.241,0-0.359c0.115-0.408,0.499-0.68,0.922-0.651
			c0.366-0.002,0.812,0.226,1.116,0.457c0.389,0.302,0.618,0.575,0.635,0.665c0.016,0.037,0.023,0.078,0.02,0.118
			c-0.042-0.056-0.344-0.346-0.344-0.346l-0.191,0.241l0.359,0.316c-0.091,0.061-0.201,0.085-0.309,0.07
			c-0.166-0.022-0.542-0.253-0.542-0.435C6,14.053,5.738,13.997,5.471,13.989c-0.152,0.005-0.304,0.029-0.45,0.071
			c-0.07,0.02-0.116-0.018-0.166-0.04l-0.022,0.013l0.14,0.216c0.042,0.02,0.121-0.028,0.233-0.048
			c0.219-0.037,0.444-0.001,0.64,0.105c0.206,0.14,0.401,0.295,0.583,0.464c0.062,0.074,0.168,0.095,0.254,0.05
			c0.056-0.05,0.138-0.053,0.13,0.015c-0.008,0.068-0.033,0.141,0.025,0.166c0.058,0.025,0.091-0.028,0.133-0.057
			c0.039-0.03,0.092-0.033,0.135-0.008C7.052,15.03,6.983,15.114,6.9,15.184c-0.073,0.071-0.174,0.104-0.274,0.091l-0.05,0.12
			l0.352,0.809c0.091,0.186,0.105,0.236,0.179,0.361C6.583,16.654,6.069,16.796,5.573,16.989z M7.445,16.501
			c-0.071-0.119-0.131-0.244-0.179-0.374l-0.248-0.459c-0.049-0.079-0.049-0.18,0-0.259c0.087-0.115,0.194-0.213,0.316-0.289
			l0.023,0.48c0,0,0.314,0.593,0.452,0.9C7.68,16.501,7.558,16.501,7.445,16.501z M7.575,14.358
			c-0.034-0.187-0.114-0.363-0.231-0.513l1.46-0.646L7.575,14.358z"/>
		<path class="st0" d="M6.746,13.848c-0.188-0.138-0.386-0.262-0.591-0.372L6.021,13.82c0.19,0.076,0.374,0.168,0.548,0.276
			L6.746,13.848z"/>
		<path class="st0" d="M4.91,13.504c-0.14,0.122-0.207,0.306-0.182,0.489c0.092-0.083,0.193-0.155,0.301-0.215L4.91,13.504z"/>
	</g>
	<path class="st0" d="M11.12,14.095c0,0.244,0.101,0.321,0.469,0.321s0.535-0.111,0.776-0.606h0.086l-0.086,0.776h-2.273v-0.088
		c0.342-0.086,0.377-0.166,0.377-0.483v-1.907c0-0.264-0.066-0.332-0.377-0.417v-0.088h1.412v0.088
		c-0.296,0.076-0.377,0.136-0.377,0.397L11.12,14.095z"/>
	<path class="st0" d="M13.416,14.172c0,0.194,0.096,0.301,0.311,0.332v0.088h-1.209v-0.088c0.261-0.05,0.322-0.121,0.322-0.366
		v-1.025c0-0.236-0.066-0.301-0.347-0.357V12.67l0.831-0.071h0.088L13.416,14.172z M13.131,11.394c0.184,0,0.332,0.149,0.332,0.332
		s-0.149,0.332-0.332,0.332s-0.332-0.149-0.332-0.332S12.947,11.394,13.131,11.394z"/>
	<path class="st0" d="M14.669,13.075c0.194-0.178,0.296-0.229,0.449-0.229c0.342,0,0.572,0.332,0.572,0.796
		c0,0.626-0.286,0.882-0.713,0.882c-0.231,0-0.307-0.103-0.307-0.322V13.075z M14.669,11.394h-0.086l-0.779,0.055v0.085
		c0.178,0.03,0.291,0.121,0.291,0.284v2.765c0.309,0.056,0.623,0.081,0.937,0.076c0.939,0,1.294-0.498,1.294-1.082
		c0.031-0.518-0.364-0.964-0.882-0.995c-0.012-0.001-0.023-0.001-0.035-0.001c-0.286,0.005-0.556,0.133-0.739,0.352L14.669,11.394z"
		/>
	<path class="st0" d="M17.173,13.336c0.015-0.367,0.166-0.611,0.407-0.611c0.241,0,0.409,0.254,0.429,0.611H17.173z M18.63,13.452
		c-0.051-0.512-0.495-0.893-1.008-0.866c-0.574-0.017-1.053,0.435-1.07,1.01c0,0.013-0.001,0.027,0,0.04
		c-0.008,0.559,0.439,1.018,0.998,1.026c0.017,0,0.035,0,0.052-0.001c0.447,0.011,0.855-0.253,1.028-0.665h-0.086
		c-0.137,0.254-0.4,0.414-0.688,0.419c-0.357,0-0.714-0.332-0.683-0.959L18.63,13.452z"/>
	<path class="st0" d="M20.476,13.331c-0.107-0.136-0.262-0.226-0.434-0.251c-0.166,0-0.281,0.071-0.427,0.276v0.786
		c0,0.229,0.045,0.301,0.332,0.356v0.088h-1.223v-0.088c0.254-0.061,0.321-0.138,0.321-0.356v-1.015
		c0.025-0.182-0.102-0.35-0.283-0.375c-0.023-0.003-0.046-0.004-0.069-0.002v-0.086l0.841-0.076h0.088v0.608h0.01
		c0.188-0.419,0.397-0.611,0.636-0.611c0.133,0.002,0.258,0.063,0.342,0.166L20.476,13.331z"/>
	<path class="st0" d="M23.722,12.663v0.086c0.246,0.05,0.301,0.204,0.128,0.611l-0.266,0.616l-0.407-0.841
		c-0.118-0.244-0.118-0.357,0.101-0.387v-0.086h-1.703v-0.744h-0.096c-0.232,0.309-0.513,0.579-0.831,0.799v0.098h0.346v1.233
		c0,0.439,0.291,0.613,0.653,0.613c0.255,0.018,0.497-0.116,0.616-0.342l-0.06-0.056c-0.065,0.092-0.168,0.148-0.281,0.153
		c-0.271,0-0.352-0.183-0.352-0.498v-1.105h0.515c0.281,0,0.362,0.101,0.485,0.362l0.703,1.484
		c-0.234,0.631-0.439,0.886-0.794,0.886c-0.089,0.001-0.177-0.014-0.261-0.045l-0.118,0.58c0.055,0.009,0.111,0.013,0.166,0.012
		c0.397,0,0.616-0.166,0.821-0.638l0.969-2.213c0.166-0.356,0.219-0.427,0.464-0.498v-0.086L23.722,12.663z"/>
	<path class="st0" d="M13.857,18.043c0.016,0.246,0.21,0.443,0.455,0.464v0.086h-1.474v-0.081c0.332-0.081,0.382-0.269,0.332-0.656
		l-0.244-1.705h-0.01l-0.969,2.447H11.84l-0.959-2.447h-0.01l-0.259,1.754c-0.052,0.347,0.015,0.581,0.352,0.606v0.086H9.883v-0.086
		c0.321-0.015,0.459-0.198,0.53-0.656l0.296-1.947c-0.113-0.121-0.268-0.194-0.434-0.204v-0.088h1.077l0.766,1.964l0.791-1.969h1.01
		v0.088c-0.307,0.055-0.379,0.208-0.332,0.483L13.857,18.043z"/>
	<path class="st0" d="M14.546,17.089c0-0.213-0.071-0.289-0.302-0.332v-0.086l0.791-0.078h0.086v1.42
		c-0.011,0.174,0.122,0.324,0.296,0.335c0.021,0.001,0.041,0.001,0.062-0.002c0.194,0,0.311-0.081,0.478-0.347v-0.957
		c0-0.166-0.101-0.251-0.301-0.286v-0.086l0.791-0.078h0.086v1.53c0,0.254,0.052,0.316,0.306,0.382v0.086l-0.882,0.076v-0.469h-0.01
		c-0.214,0.332-0.454,0.469-0.764,0.469c-0.397,0-0.636-0.219-0.636-0.585L14.546,17.089z"/>
	<path class="st0" d="M17.282,16.825h-0.347v-0.098c0.319-0.219,0.599-0.489,0.831-0.799h0.098v0.744h0.631v0.153h-0.631v1.105
		c0,0.312,0.081,0.498,0.352,0.498c0.112-0.005,0.215-0.061,0.279-0.153l0.061,0.056c-0.122,0.222-0.364,0.352-0.616,0.332
		c-0.362,0-0.653-0.166-0.653-0.611L17.282,16.825z"/>
	<path class="st0" d="M18.862,17.089c0-0.213-0.071-0.289-0.301-0.332v-0.086l0.791-0.078h0.086v1.42
		c-0.011,0.174,0.122,0.324,0.296,0.335c0.021,0.001,0.041,0.001,0.062-0.002c0.193,0,0.311-0.081,0.478-0.347v-0.957
		c0-0.166-0.101-0.251-0.301-0.286v-0.086l0.791-0.078h0.086v1.53c0,0.254,0.052,0.316,0.306,0.382v0.086l-0.882,0.076v-0.469
		h-0.017c-0.214,0.332-0.454,0.469-0.764,0.469c-0.397,0-0.638-0.219-0.638-0.585L18.862,17.089z"/>
	<path class="st0" d="M22.473,18.262c-0.089,0.112-0.22,0.184-0.362,0.199c-0.166,0-0.266-0.138-0.266-0.347
		c0-0.259,0.148-0.377,0.628-0.581V18.262z M23.052,17.313c0-0.53-0.432-0.719-0.846-0.719c-0.41-0.025-0.776,0.253-0.862,0.655
		h0.076c0.113-0.21,0.337-0.336,0.575-0.322c0.347,0,0.48,0.166,0.48,0.498c-0.47,0.166-1.234,0.214-1.234,0.734
		c0.024,0.296,0.28,0.518,0.577,0.498c0.225,0.009,0.444-0.074,0.606-0.229l0.047-0.04c0.078,0.182,0.267,0.291,0.464,0.269
		c0.281,0,0.449-0.131,0.469-0.372h-0.081c-0.02,0.118-0.071,0.179-0.153,0.179s-0.118-0.076-0.118-0.254L23.052,17.313z"/>
	<path class="st0" d="M23.802,15.928c0-0.271-0.086-0.367-0.361-0.382v-0.086l0.851-0.056h0.086v2.721
		c0,0.254,0.056,0.316,0.342,0.382v0.086h-1.279v-0.081c0.279-0.045,0.361-0.138,0.361-0.382V15.928z"/>
	<path class="st0" d="M24.79,18.227h0.15v0.39H25v-0.39h0.151v-0.048H24.79V18.227z"/>
	<path class="st0" d="M25.616,18.618v-0.263c0-0.013,0-0.068,0-0.11l0,0l-0.125,0.372h-0.06l-0.123-0.372l0,0
		c0,0.042,0,0.096,0,0.11v0.263H25.25v-0.439h0.085l0.128,0.375l0,0l0.126-0.375h0.085v0.444L25.616,18.618z"/>
</g>
</svg>
